<svg id="Layer_1" data-name="Layer 1" xmlns="http://www.w3.org/2000/svg" xmlns:xlink="http://www.w3.org/1999/xlink" viewBox="0 0 512 512"><defs><style>.cls-1{fill:url(#linear-gradient);}.cls-2{fill:#fff;}</style><linearGradient id="linear-gradient" x1="74.98" y1="74.98" x2="437.02" y2="437.02" gradientUnits="userSpaceOnUse"><stop offset="0" stop-color="#15c1ff"/><stop offset="1" stop-color="#00e971"/></linearGradient></defs><circle class="cls-1" cx="256" cy="256" r="256"/><path class="cls-2" d="M345,103.15a58.09,58.09,0,0,0-13.85-8.89,68.69,68.69,0,0,0-15.75-5,110,110,0,0,0-30.91-.79,193.69,193.69,0,0,0-28.79,5.09c-9,2.41-18,5.79-25.91,10.74-8.41,5.28-16.11,12.49-20.64,21.44a57.74,57.74,0,0,0-3.81,9.29,57.73,57.73,0,0,0-.75,27.61,84.65,84.65,0,0,0,5.71,17.15,124.27,124.27,0,0,0,7,13.86c5.54,9.47,12,18.41,18.16,27.47,12.37,18.14,25.71,36,35.39,55.83q1.77,3.63,3.36,7.36L272.86,281a110,110,0,0,1,7.73,27.36l-.5-3.73a82.29,82.29,0,0,1,.15,21.61l.5-3.73a67.52,67.52,0,0,1-4.55,16.74l1.42-3.36a82.6,82.6,0,0,1-10.74,18l2.19-2.85a158,158,0,0,1-17.87,19c-6.48,6-13.09,11.94-20.07,17.34l2.84-2.2a75.16,75.16,0,0,1-16.06,9.78l3.36-1.41a41.63,41.63,0,0,1-9.83,2.79l3.73-.51a33.41,33.41,0,0,1-8.3.08l3.73.5a30,30,0,0,1-7.39-2l3.36,1.42a31.87,31.87,0,0,1-6.75-3.94l2.84,2.2a37.38,37.38,0,0,1-6.43-6.45l2.19,2.84a45.12,45.12,0,0,1-5.72-9.86l1.42,3.35a49.22,49.22,0,0,1-3.26-12l.5,3.73a48.53,48.53,0,0,1,.05-12.57l-.5,3.73a71.28,71.28,0,0,1,5.09-18l-1.42,3.36c7.17-16.71,18.85-31.32,29.88-45.62l-2.2,2.85q19-24.54,39.91-47.44t43.52-43.75q12.79-11.84,26.13-23.06c2.62-2.2,4.12-6.64,4.12-9.94a14.3,14.3,0,0,0-4.12-9.94c-2.68-2.46-6.2-4.28-9.94-4.12l-3.74.51a14,14,0,0,0-6.2,3.61q-23.71,20-45.73,41.86t-42.07,45.53c-14,16.43-27.46,33.39-39.81,51.06a146.63,146.63,0,0,0-15.94,28.83,70.12,70.12,0,0,0-4.2,14.19,65.22,65.22,0,0,0-1.24,16,61.69,61.69,0,0,0,8.77,28.35A51.08,51.08,0,0,0,181,412.44a49.27,49.27,0,0,0,14.77,9.06,40,40,0,0,0,15.33,2.72A47.46,47.46,0,0,0,227.82,421a77.7,77.7,0,0,0,15.31-7.93A163.64,163.64,0,0,0,257,402.33c14.92-12.66,30.06-26.19,40.21-43.14a89.94,89.94,0,0,0,7.24-15.46,81.08,81.08,0,0,0,3.95-18c1.4-11.19.19-22.75-2.36-33.69-5-21.47-16.43-40.88-28.56-59-6.16-9.22-12.47-18.36-18.72-27.52-6-8.79-12.21-17.46-17.54-26.67a118.33,118.33,0,0,1-6.62-13.17L236,169a67.45,67.45,0,0,1-4.77-16.76l.51,3.74a44.37,44.37,0,0,1,0-11.34l-.51,3.74a39.06,39.06,0,0,1,2.48-9.19l-1.42,3.36a38.46,38.46,0,0,1,4.79-8.29l-2.2,2.84a43.62,43.62,0,0,1,7.76-7.72l-2.85,2.2a63.1,63.1,0,0,1,13.83-7.89l-3.36,1.42c10.86-4.56,22.55-6.93,34.19-8.51l-3.74.51c9.5-1.26,19.16-1.81,28.69-.54l-3.73-.5A58.41,58.41,0,0,1,320.35,120L317,118.54a46.26,46.26,0,0,1,9.92,5.8l-2.85-2.2,1.1.89c3,2.43,6,4.12,9.94,4.12A14.32,14.32,0,0,0,345,123c2.46-2.68,4.29-6.2,4.12-9.94-.16-3.52-1.28-7.61-4.12-9.94Z"/></svg>