<svg id="Layer_1" data-name="Layer 1" xmlns="http://www.w3.org/2000/svg" xmlns:xlink="http://www.w3.org/1999/xlink" viewBox="0 0 5666.6 1000"><defs><style>.cls-1{fill:url(#linear-gradient);}.cls-2{fill:#fff;}</style><linearGradient id="linear-gradient" x1="146.45" y1="146.45" x2="853.55" y2="853.55" gradientUnits="userSpaceOnUse"><stop offset="0" stop-color="#15c1ff"/><stop offset="1" stop-color="#00e971"/></linearGradient></defs><circle class="cls-1" cx="500" cy="500" r="500"/><path d="M1246.18,681.41a18.61,18.61,0,0,1-18.48-18.48V329.73a17.55,17.55,0,0,1,5.45-13.27,18.2,18.2,0,0,1,13-5.22q11.37,0,16.59,9.48L1422.5,638.28h-16.12l156.89-317.56q5.68-9.47,16.59-9.48a17.43,17.43,0,0,1,12.79,5.22,18,18,0,0,1,5.22,13.27v333.2a18.16,18.16,0,0,1-5.22,13,17,17,0,0,1-12.79,5.45,18.3,18.3,0,0,1-13.51-5.45,17.74,17.74,0,0,1-5.45-13V377.6l8,.47L1429.13,663.88q-5.22,9-16.11,9-11.85,0-17.07-11.37L1255.19,380l9.48-2.37V662.93a18.63,18.63,0,0,1-18.49,18.48Z"/><path d="M1711.14,681.41a17.85,17.85,0,0,1-18.49-18.48V329.73a18.51,18.51,0,0,1,32.71-11.85l226.55,297.65V329.73a17.86,17.86,0,0,1,18.49-18.49,18.22,18.22,0,0,1,13,5.22,17.59,17.59,0,0,1,5.45,13.27v333.2a17.56,17.56,0,0,1-5.45,13.27,18.17,18.17,0,0,1-13,5.21,21.36,21.36,0,0,1-7.58-1.42,13,13,0,0,1-6.17-4.74l-227-297.65V662.93a17.56,17.56,0,0,1-5.45,13.27A18.17,18.17,0,0,1,1711.14,681.41Z"/><path d="M2102.16,681.41a17.83,17.83,0,0,1-18.48-18.48V329.73a18.49,18.49,0,1,1,37,0v333.2a17.85,17.85,0,0,1-18.49,18.48Z"/><path d="M2329.19,686.15q-30.33,0-56.16-8.76t-44.79-24.89a109.77,109.77,0,0,1-28.92-37.44q-3.8-7.57-.23-14t12.08-8.77a17.19,17.19,0,0,1,13,1.42,22,22,0,0,1,9.71,9.95,76.2,76.2,0,0,0,20.86,24.65,100,100,0,0,0,32.7,16.83,139.3,139.3,0,0,0,41.71,5.92q25.13,0,44.56-8.29t30.57-24.18q11.13-15.87,11.13-38.62,0-28.9-21.32-49.77t-66.83-26.54q-55.46-6.65-86.74-34.37t-31.28-68q0-28.91,15.4-50.24t42.42-32.94q27-11.61,62.09-11.62,26.07,0,47.4,8.3a129.21,129.21,0,0,1,37.21,21.8,126.27,126.27,0,0,1,25.83,29.62q4.73,7.59,3.08,14.7a16.49,16.49,0,0,1-8.3,10.9,19.77,19.77,0,0,1-25.59-8.06,107.89,107.89,0,0,0-17.77-20.62,79.24,79.24,0,0,0-25.84-15.4q-15.16-5.69-36.49-6.16-37.45,0-60.2,15.88t-22.75,46.21a54.36,54.36,0,0,0,8.54,29.62q8.52,13.51,28.2,23.23T2335.35,471q59.25,8.53,87.92,36.26T2452,579.51q0,25.59-9.24,45.5a91.94,91.94,0,0,1-26.07,33.42A119.92,119.92,0,0,1,2377.3,679,158.85,158.85,0,0,1,2329.19,686.15Z"/><path d="M2487,344.9q-7.59,0-12.32-4.74a16.08,16.08,0,0,1-4.74-11.85A16.26,16.26,0,0,1,2487,311.24h262.11a16.26,16.26,0,0,1,17.06,17.07,16.12,16.12,0,0,1-4.74,11.85,16.67,16.67,0,0,1-12.32,4.74Zm130.82,336.51a18.61,18.61,0,0,1-18.49-18.48V311.24h37V662.93a18.19,18.19,0,0,1-5.21,13A17.55,17.55,0,0,1,2617.84,681.41Z"/><path d="M2978.05,681.41a17.83,17.83,0,0,1-18.48-18.48V329.73a17.85,17.85,0,0,1,18.48-18.49h94.8q35.07,0,62.09,15.41a110,110,0,0,1,42.18,42.42q15.16,27,15.17,62.56,0,34.61-15.17,61.38a110.34,110.34,0,0,1-42.18,42.18q-27,15.42-62.09,15.41h-76.31V662.93a17.85,17.85,0,0,1-18.49,18.48Zm18.49-166.36h76.31q24.17,0,43.13-10.66a76.28,76.28,0,0,0,29.62-29.63q10.67-18.94,10.66-43.13,0-25.11-10.66-44.08A78.15,78.15,0,0,0,3116,357.69q-19-10.89-43.13-10.9h-76.31Z"/><path d="M3300.83,681.41A57.74,57.74,0,0,1,3266.94,671q-14.94-10.43-23.23-28.92t-8.29-42.65V329.26q0-8.06,5-13t13-5q8.06,0,13,5t5,13V599.42q0,20.39,8.29,33.18t21.1,12.79h11.84a14.23,14.23,0,0,1,11.38,5q4.26,5,4.27,13a16.21,16.21,0,0,1-5.93,13q-5.92,5-15.4,5Z"/><path d="M3478.56,683.78q-36.49,0-65.41-17.3a126,126,0,0,1-45.73-47.16q-16.83-29.85-16.83-67.3,0-37.92,17.3-67.78a127.48,127.48,0,0,1,47.16-47.16q29.86-17.29,67.3-17.3t67.07,17.3a128.18,128.18,0,0,1,46.92,47.16q17.29,29.87,17.78,67.78l-14.7,11.38q0,34.13-15.87,61.37a117.72,117.72,0,0,1-43.13,43.14Q3513.15,683.8,3478.56,683.78Zm3.79-33.17q27.49,0,49.06-12.8a92.89,92.89,0,0,0,34.13-35.31Q3578.08,580,3578.1,552q0-28.44-12.56-50.71A95.21,95.21,0,0,0,3531.41,466q-21.57-13-49.06-13-27,0-48.81,13a96.3,96.3,0,0,0-34.6,35.31q-12.81,22.27-12.8,50.71,0,28,12.8,50.48a93.93,93.93,0,0,0,34.6,35.31Q3455.34,650.61,3482.35,650.61Zm113.28,30.8a18.42,18.42,0,0,1-13.27-5q-5.22-5-5.21-13v-81l9-37.44,28,7.11V663.4q0,8.07-5.22,13A18.43,18.43,0,0,1,3595.63,681.41Z"/><path d="M3782.37,673.36q-7.11,3.32-13.27,1.18t-9.95-9.24l-105.7-219q-3.32-7.11-.95-13.28t9.48-9.47q7.11-3.31,13.27-1.19t9.48,9.24l103.8,219q3.79,7.11,2.37,13.27T3782.37,673.36Zm-52.61,120.86a23.32,23.32,0,0,1-8.53-1.9q-16.12-7.11-9-22.75l153.09-337.46q7.13-15.17,22.76-8.53,16.09,6.63,9,22.27L3743.5,783.32Q3738.76,794.21,3729.76,794.22Z"/><path d="M4049.69,683.78q-37.46,0-66.36-16.82a119.08,119.08,0,0,1-45.26-46.69q-16.35-29.85-16.35-68.25,0-38.85,17.06-68.72a122.29,122.29,0,0,1,46.92-46.69q29.87-16.82,67.78-16.83,38.39,0,68,16.83a121.07,121.07,0,0,1,46.44,46.69q16.83,29.85,17.3,68.72l-21.32,11.38q0,35.07-14.7,62.32a108.53,108.53,0,0,1-40.52,42.66Q4082.85,683.79,4049.69,683.78Zm4.74,100q-37.45,0-65.88-14a130.69,130.69,0,0,1-46.93-38.16q-5.22-5.68-4.5-12.32c.48-4.43,2.76-8.06,6.87-10.9a17.56,17.56,0,0,1,13.75-2.84,18.42,18.42,0,0,1,11.85,7.11q13.74,17.06,35.31,27.49t50,10.42q26.54,0,47.87-12.79t33.89-36q12.56-23.24,12.56-54.51v-72l13.75-27.5,22.27,4.27v96.69q0,38.38-17.06,69A128.8,128.8,0,0,1,4121.73,766Q4092.35,783.8,4054.43,783.79Zm-.95-133.18q28,0,49.53-12.56a89.82,89.82,0,0,0,33.89-34.84q12.32-22.28,12.32-51.19t-12.32-51.43A89.49,89.49,0,0,0,4103,465.52Q4081.44,453,4053.48,453t-49.77,12.56a89,89,0,0,0-34.12,35.07q-12.33,22.53-12.33,51.43t12.33,51.19a89.29,89.29,0,0,0,34.12,34.84Q4025.5,650.61,4053.48,650.61Z"/><path d="M4274.34,681.41q-8.52,0-13.27-4.74t-4.74-13.27V440.16q0-8.52,4.74-13.27c3.16-3.15,7.59-4.74,13.27-4.74s10.11,1.59,13.27,4.74,4.74,7.59,4.74,13.27V663.4q0,8.54-4.74,13.27T4274.34,681.41Zm-2.84-159.72q1.42-29.39,15.4-52.61a103.58,103.58,0,0,1,36.5-36.5q22.5-13.26,50-13.27,21.8,0,33.65,6.16t9,18q-1.91,7.11-6.4,9.48a19.76,19.76,0,0,1-10.9,1.9q-6.41-.47-14.46-.95-26.55-2.37-47.16,5.45t-32.7,23.94q-12.09,16.11-12.09,38.39Z"/><path d="M4572.47,683.78q-37.92,0-67.78-17.06a123.93,123.93,0,0,1-46.92-46.92q-17.07-29.87-17.06-67.78,0-38.38,17.06-68.25a123.86,123.86,0,0,1,46.92-46.92q29.87-17.07,67.78-17.07T4640,436.85a124.46,124.46,0,0,1,46.69,46.92q17.05,29.87,17.53,68.25,0,37.92-17.3,67.78A126.28,126.28,0,0,1,4640,666.72Q4610.39,683.79,4572.47,683.78Zm0-33.17q27.48,0,49.29-12.8a91.07,91.07,0,0,0,34.13-35.07q12.31-22.28,12.32-50.72t-12.32-50.95a90.68,90.68,0,0,0-34.13-35.31Q4600,453,4572.47,453t-49.29,12.8a92.27,92.27,0,0,0-34.37,35.31q-12.56,22.52-12.56,50.95t12.56,50.72a92.68,92.68,0,0,0,34.37,35.07Q4545,650.61,4572.47,650.61Z"/><path d="M4888.13,684.26q-33.66,0-60.2-14t-41.94-41q-15.42-27-15.41-65.88V440.16a17.83,17.83,0,0,1,18-18,18,18,0,0,1,13.27,5.22,17.39,17.39,0,0,1,5.22,12.79V563.4q0,29.39,11.14,48.34a71.06,71.06,0,0,0,30.33,28.44q19.2,9.48,43.37,9.48,23.22,0,41.94-9T4963.49,616a60.74,60.74,0,0,0,10.9-35.55h26.07q-1.43,29.87-16.35,53.32a106.33,106.33,0,0,1-40,37Q4918.92,684.27,4888.13,684.26Zm104.27-2.85q-8.07,0-13-5t-5-13.51V440.16q0-8,5-13t13-5a18.44,18.44,0,0,1,13.27,5q5.2,5,5.21,13V662.93q0,8.54-5.21,13.51A18.43,18.43,0,0,1,4992.4,681.41Z"/><path d="M5114.68,681.41q-8.54,0-13.51-5t-5-13V440.64q0-8.53,5-13.51t13.51-5q8.06,0,13,5t5,13.51V663.4q0,8.07-5,13T5114.68,681.41Zm203.8,0a18,18,0,0,1-13.27-5.21,17.37,17.37,0,0,1-5.21-12.8V540.17q0-29.38-11.14-48.34a71.17,71.17,0,0,0-30.33-28.44q-19.2-9.48-43.37-9.48-23.23,0-41.95,9t-29.62,24.65a60.67,60.67,0,0,0-10.9,35.55h-26.07q.95-29.87,16.11-53.32a108,108,0,0,1,40.29-37q25.13-13.51,55.93-13.51,33.65,0,60.19,14t41.95,41q15.4,27,15.41,65.88V663.4a17.81,17.81,0,0,1-18,18Z"/><path d="M5535.08,683.78q-37.44,0-67.3-17.3a127.33,127.33,0,0,1-47.16-47.16q-17.31-29.85-17.3-67.77,0-37.44,16.82-67.31a126.14,126.14,0,0,1,45.74-47.16q28.9-17.29,65.41-17.3,31.74,0,57.35,13.51t41.24,35.79V329.73q0-8.53,5.21-13.51a20.17,20.17,0,0,1,26.54,0q5.21,5,5.21,13.51V553.44q-.94,37-18.24,66.6a126.7,126.7,0,0,1-46.93,46.68Q5572,683.79,5535.08,683.78Zm0-33.17q27.48,0,49.06-13a95,95,0,0,0,34.12-35.31q12.56-22.28,12.56-50.71,0-28-12.56-50.48a92.86,92.86,0,0,0-34.12-35.31Q5562.57,453,5535.08,453q-27,0-48.82,12.8a94,94,0,0,0-34.6,35.31q-12.8,22.52-12.79,50.48,0,28.44,12.79,50.71a96.22,96.22,0,0,0,34.6,35.31Q5508.06,650.62,5535.08,650.61Z"/><path class="cls-2" d="M690,173.81c-9.18-7.57-18.64-14.22-29.58-18.95s-21.82-8.6-33.59-10.62a235.23,235.23,0,0,0-66-1.68c-20.64,2.28-41.36,5.48-61.44,10.86-19.14,5.14-38.45,12.35-55.29,22.92-17.95,11.26-34.36,26.66-44,45.75A124.2,124.2,0,0,0,392,241.91c-2.13,7-3.07,14.22-3.93,21.46-1.48,12.49,0,25.17,2.32,37.46,2.43,12.75,7.12,24.69,12.18,36.59a264,264,0,0,0,15,29.58c11.81,20.22,25.56,39.3,38.74,58.63,26.4,38.72,54.87,76.91,75.53,119.13q3.78,7.75,7.16,15.71l-3-7.17a234.57,234.57,0,0,1,16.5,58.4l-1.07-8a175.13,175.13,0,0,1,.31,46.14l1.07-8a144.15,144.15,0,0,1-9.7,35.73l3-7.16a176.28,176.28,0,0,1-22.92,38.4l4.69-6.07c-11.41,14.67-24.51,27.9-38.14,40.5-13.83,12.78-27.93,25.47-42.83,37l6.07-4.69c-10.66,8.16-21.91,15.59-34.29,20.88l7.17-3a88.05,88.05,0,0,1-21,6l8-1.07a71,71,0,0,1-17.72.15l8,1.07a63.44,63.44,0,0,1-15.79-4.22l7.17,3a68.07,68.07,0,0,1-14.4-8.41l6.07,4.69a79.52,79.52,0,0,1-13.74-13.76l4.69,6.07a95.58,95.58,0,0,1-12.21-21.06l3,7.17a104.59,104.59,0,0,1-7-25.58l1.07,8a103.86,103.86,0,0,1,.1-26.83l-1.07,8a152.18,152.18,0,0,1,10.87-38.37l-3,7.17c15.29-35.66,40.21-66.85,63.74-97.35L428,614.1q40.47-52.35,85.17-101.22,44.48-48.6,92.88-93.38,27.3-25.26,55.76-49.2c5.58-4.7,8.78-14.18,8.78-21.21,0-7.36-3.26-16.15-8.78-21.21-5.72-5.25-13.23-9.15-21.22-8.79l-8,1.07a30,30,0,0,0-13.24,7.72q-50.61,42.62-97.58,89.32T432,514.36c-29.78,35-58.59,71.26-84.95,109-13.57,19.42-25.08,39.55-34,61.51a149.45,149.45,0,0,0-8.94,30.29c-2,11.23-3.49,22.74-2.67,34.16,1.53,21.25,7.38,42.31,18.72,60.49a109.58,109.58,0,0,0,19.73,24.07,105.45,105.45,0,0,0,31.52,19.33,85.39,85.39,0,0,0,32.7,5.8,101.26,101.26,0,0,0,35.79-6.89,167,167,0,0,0,32.68-16.92,352.74,352.74,0,0,0,29.63-22.9c31.85-27,64.15-55.89,85.82-92.06a193.93,193.93,0,0,0,15.45-33c4.56-12.49,6.79-25.35,8.43-38.5,3-23.89.4-48.54-5-71.9-10.66-45.8-35.06-87.22-60.94-125.94-13.16-19.69-26.62-39.17-40-58.74-12.78-18.74-26.06-37.25-37.42-56.91a255.32,255.32,0,0,1-14.14-28.09l3,7.17a144.34,144.34,0,0,1-10.18-35.77l1.07,8a95.53,95.53,0,0,1-.08-24.19l-1.07,8a83.29,83.29,0,0,1,5.28-19.61l-3,7.16a82.59,82.59,0,0,1,10.2-17.69l-4.69,6.07a93.93,93.93,0,0,1,16.56-16.48l-6.07,4.69a134.85,134.85,0,0,1,29.5-16.83l-7.17,3c23.19-9.73,48.14-14.78,73-18.14l-8,1.07c20.28-2.68,40.89-3.86,61.23-1.15l-8-1.07a126.16,126.16,0,0,1,31.36,8.35l-7.17-3A98.17,98.17,0,0,1,651.32,219l-6.07-4.69q1.18.93,2.34,1.89c6.31,5.2,12.75,8.79,21.21,8.79,7.36,0,16.15-3.27,21.22-8.79,5.25-5.72,9.14-13.22,8.78-21.21-.33-7.51-2.74-16.23-8.78-21.22Z"/></svg>