<svg id="Layer_1" data-name="Layer 1" xmlns="http://www.w3.org/2000/svg" viewBox="0 0 1000 1000"><defs><style>.cls-1{fill:#fff;}</style></defs><path class="cls-1" d="M764.63,45.69c-12.79-10.55-26-19.82-41.19-26.4s-30.39-12-46.79-14.79a327.11,327.11,0,0,0-91.89-2.34C556,5.33,527.16,9.78,499.19,17.28c-26.67,7.16-53.56,17.2-77,31.92-25,15.69-47.86,37.14-61.35,63.73a172,172,0,0,0-11.3,27.6c-3,9.74-4.27,19.81-5.47,29.89-2.06,17.39,0,35.06,3.23,52.18,3.38,17.75,9.92,34.39,17,51a362.72,362.72,0,0,0,20.9,41.2c16.45,28.16,35.59,54.73,53.95,81.66,36.77,53.92,76.43,107.12,105.2,165.93q5.28,10.8,10,21.87l-4.21-10c11,26.09,19.06,53.27,23,81.33l-1.5-11.1a243.76,243.76,0,0,1,.44,64.25l1.49-11.11A201.09,201.09,0,0,1,560,747.38l4.21-10c-8.18,19.22-19.2,37-31.93,53.48l6.54-8.45c-15.9,20.43-34.13,38.86-53.12,56.41-19.26,17.8-38.91,35.48-59.66,51.52l8.46-6.53c-14.84,11.36-30.51,21.72-47.76,29.08l10-4.21A122.88,122.88,0,0,1,367.48,917l11.11-1.49a98.47,98.47,0,0,1-24.68.21L365,917.2a88.57,88.57,0,0,1-22-5.87l10,4.21A94.82,94.82,0,0,1,333,903.83l8.46,6.54a111.23,111.23,0,0,1-19.13-19.17l6.53,8.46a133.16,133.16,0,0,1-17-29.34l4.21,10a145.37,145.37,0,0,1-9.69-35.63l1.49,11.11A144.44,144.44,0,0,1,308,818.4l-1.5,11.11a212.12,212.12,0,0,1,15.15-53.44l-4.22,10c21.31-49.66,56-93.1,88.79-135.58l-6.53,8.46Q456,586,518.27,517.93q62-67.68,129.37-130,38-35.17,77.65-68.52c7.78-6.55,12.24-19.76,12.24-29.55,0-10.25-4.55-22.49-12.24-29.54-8-7.31-18.41-12.74-29.54-12.24l-11.11,1.49a41.76,41.76,0,0,0-18.44,10.75q-70.5,59.36-135.9,124.41T405.24,520c-41.48,48.82-81.6,99.26-118.32,151.78-18.9,27-34.92,55.08-47.39,85.66a209,209,0,0,0-12.46,42.19c-2.77,15.65-4.85,31.68-3.71,47.59,2.13,29.59,10.27,58.93,26.07,84.25,7.57,12.15,16.73,24,27.48,33.52,13.56,12,27.27,20.14,43.9,26.92,14.2,5.79,30.29,8.25,45.55,8.08a141,141,0,0,0,49.84-9.6,232.39,232.39,0,0,0,45.52-23.56A491.26,491.26,0,0,0,503,934.93c44.36-37.64,89.34-77.84,119.53-128.22a269.24,269.24,0,0,0,21.51-46c6.36-17.39,9.45-35.3,11.75-53.63,4.16-33.26.55-67.6-7-100.13-14.85-63.8-48.84-121.49-84.89-175.41-18.33-27.42-37.07-54.57-55.65-81.81-17.8-26.11-36.3-51.89-52.12-79.28a353.34,353.34,0,0,1-19.69-39.12l4.21,10c-6.67-16-11.83-32.6-14.18-49.82l1.49,11.11a132.37,132.37,0,0,1-.12-33.69l-1.49,11.11a115.86,115.86,0,0,1,7.36-27.32l-4.21,10a114.46,114.46,0,0,1,14.21-24.64l-6.53,8.45a130.5,130.5,0,0,1,23.06-23l-8.46,6.54a188.08,188.08,0,0,1,41.09-23.45l-10,4.22c32.29-13.55,67-20.6,101.62-25.27l-11.1,1.49c28.24-3.74,57-5.38,85.28-1.6L647.56,84a175.25,175.25,0,0,1,43.68,11.64l-10-4.22a137.26,137.26,0,0,1,29.47,17.24l-8.46-6.53c1.1.86,2.19,1.74,3.26,2.63C714.32,112,723.29,117,735.08,117c10.25,0,22.49-4.56,29.55-12.24,7.31-8,12.73-18.42,12.23-29.55-.46-10.45-3.82-22.6-12.23-29.54Z"/></svg>